:SAMPLES-PER-SECOND 30
:FULLY-SPECIFIED
:DEGREES
614
root  -41.806 39.3114 -3.69563 -29.0674 -82.3426 15.2872
RightUpLeg  -6.5921 -6.37084 -2.59392
RightLeg  9.18725 0.193401 0.110352
RightFoot  5.6688 -0.95572 6.71028
RightToes  5.23868e-010 0 -3.6325e-017
Spine  13.1668 -0.745082 -2.87338
Spine1  14.7877 -2.37739 2.75299
HEad  -8.29149 -1.7784 -3.27967
LeftShoulder1  -0.0597799 3.66814 -30.178
LeftArm  -16.332 4.74226 -36.1262
LeftForeArm  85.1692 -78.4374 -107.088
LeftHand  0.00255572 4.27557 -4.28647
RightShoulder  -0.580007 -5.1723 28.0021
RightArm  -17.823 -18.0538 35.6532
RightForeArm  120.6 64.7598 154.068
RightHand  -0.0603165 -4.19417 -1.97517
LeftUpLeg  12.1679 11.0244 -0.591448
LeftLeg  19.7847 -3.1811 -1.26556
LeftFoot  -15.8295 0.427279 8.43957
LeftToes  -4.9204e-010 1.02043e-011 -1.81609e-011
615
root  -42.7961 39.2598 -3.53155 -24.0063 -82.7997 10.2031
RightUpLeg  -7.28253 -6.1072 -1.01712
RightLeg  13.248 -0.622713 -0.14831
RightFoot  5.6161 0.543477 -3.41943
RightToes  5.23868e-010 0 -3.6325e-017
Spine  12.7233 -1.23345 0.890344
Spine1  15.2046 -1.95575 1.70613
HEad  -7.04 -2.17636 -4.29093
LeftShoulder1  -0.114637 3.81232 -31.0497
LeftArm  -15.6868 4.34307 -35.6712
LeftForeArm  83.8514 -78.4823 -106.087
LeftHand  -0.00355277 4.345 -3.84886
RightShoulder  -0.605314 -5.24091 28.1053
RightArm  -17.6563 -17.8323 34.9437
RightForeArm  119.804 64.9368 153.796
RightHand  -0.0601793 -4.17137 -2.10134
LeftUpLeg  13.1701 9.66598 -0.34071
LeftLeg  20.9842 -1.80857 -0.395875
LeftFoot  -17.1732 0.440864 6.6876
LeftToes  -4.9204e-010 1.02043e-011 -1.81609e-011
616
root  -43.7712 39.0144 -3.42542 -16.1751 -83.7336 1.9046
RightUpLeg  -7.95671 -4.08387 0.409284
RightLeg  18.2706 -1.71845 -0.851149
RightFoot  2.94998 0.449002 -3.38158
RightToes  5.23868e-010 0 -3.6325e-017
Spine  13.3258 -1.6517 4.81991
Spine1  15.1496 -1.31624 -0.0187765
HEad  -7.01422 -2.37091 -5.0197
LeftShoulder1  -0.171407 3.95843 -31.58
LeftArm  -15.588 4.81621 -35.5626
LeftForeArm  84.2539 -78.4213 -106.865
LeftHand  -0.00860961 4.45581 -3.45527
RightShoulder  -0.602922 -5.22649 28.2504
RightArm  -17.9173 -16.6968 34.981
RightForeArm  118.892 65.6023 152.933
RightHand  -0.0554493 -4.00559 -2.34688
LeftUpLeg  12.1942 8.83892 0.908222
LeftLeg  27.2916 -1.06113 -0.236154
LeftFoot  -18.6446 0.321909 3.4039
LeftToes  -4.9204e-010 1.02043e-011 -1.81609e-011
617
root  -44.7518 38.7678 -3.1979 1.82129 -83.1759 -16.1435
RightUpLeg  -8.24273 -5.87784 1.99444
RightLeg  22.1448 -0.783636 -0.572256
RightFoot  -0.257948 0.251411 -2.61526
RightToes  5.23868e-010 0 -3.6325e-017
Spine  13.0219 -2.9768 10.1824
Spine1  15.325 -1.41648 -1.69058
HEad  -6.72157 -2.249 -6.09013
LeftShoulder1  -0.168441 3.94072 -32.4359
LeftArm  -15.4199 5.37002 -35.872
LeftForeArm  80.9179 -78.6154 -103.307
LeftHand  -0.00978462 4.54144 -3.39805
RightShoulder  -0.52352 -5.01698 27.7759
RightArm  -17.9656 -16.2037 35.2928
RightForeArm  118.233 66.3322 151.971
RightHand  -0.0500286 -3.78675 -2.3319
LeftUpLeg  7.98012 7.61117 2.9956
LeftLeg  38.1001 -0.906536 -0.450124
LeftFoot  -17.0134 0.0374544 -1.81537
LeftToes  -4.9204e-010 1.02043e-011 -1.81609e-011
618
root  -45.6473 38.588 -3.26064 10.4973 -81.1102 -23.8879
RightUpLeg  -8.93521 -8.42256 3.44594
RightLeg  24.5154 -0.521268 -0.494552
RightFoot  -3.0557 0.158689 -2.48921
RightToes  5.23868e-010 0 -3.6325e-017
Spine  11.9096 -3.48845 11.843
Spine1  15.4282 -2.05398 0.270492
HEad  -6.42958 -2.73954 -6.07793
LeftShoulder1  -0.0936184 3.7466 -32.4292
LeftArm  -15.0516 5.10303 -36.7597
LeftForeArm  75.4666 -78.8404 -97.4611
LeftHand  -0.00313382 4.43975 -3.87834
RightShoulder  -0.474944 -4.87956 27.6282
RightArm  -18.0787 -15.7284 34.7117
RightForeArm  117.32 66.7792 151.295
RightHand  -0.0432931 -4.48223 -2.59909
LeftUpLeg  0.628857 7.46045 5.56401
LeftLeg  50.1842 -1.32004 -1.1884
LeftFoot  -8.47449 0.240688 -6.41023
LeftToes  -4.9204e-010 1.02043e-011 -1.81609e-011
619
root  -46.4535 38.4521 -3.33916 15.7732 -79.5831 -29.198
RightUpLeg  -8.42018 -9.7625 4.85903
RightLeg  26.1564 -0.713219 -0.621165
RightFoot  -5.23923 0.106415 -2.65448
RightToes  5.23868e-010 0 -3.6325e-017
Spine  12.6816 -3.75338 13.5763
Spine1  14.2407 -2.12342 1.24423
HEad  -6.21812 -3.49236 -5.43146
LeftShoulder1  -0.00796799 3.52456 -32.3522
LeftArm  -14.0799 4.15718 -37.2822
LeftForeArm  71.0541 -78.9347 -92.6788
LeftHand  0.00350623 4.18889 -4.0393
RightShoulder  -0.573369 -5.14586 28.1555
RightArm  -18.7848 -14.9666 33.9522
RightForeArm  116.768 67.4092 150.382
RightHand  -0.0363199 -4.48771 -1.73074
LeftUpLeg  -6.0986 7.10523 7.56834
LeftLeg  60.1485 -0.30248 0.0354779
LeftFoot  3.43198 0.799493 -7.02903
LeftToes  -4.9204e-010 1.02043e-011 -1.81609e-011
620
root  -47.2704 38.4389 -3.33482 19.2178 -80.0298 -33.0003
RightUpLeg  -7.14757 -9.43044 5.39856
RightLeg  27.0821 -0.547282 -0.549434
RightFoot  -6.9563 0.0545058 -2.65624
RightToes  5.23868e-010 0 -3.6325e-017
Spine  13.4263 -3.577 14.9504
Spine1  13.8379 -1.43325 0.712272
HEad  -6.50469 -4.00625 -4.61767
LeftShoulder1  0.0321495 3.42004 -32.2619
LeftArm  -13.564 2.72751 -37.9923
LeftForeArm  66.7427 -78.9595 -87.8421
LeftHand  -0.00503635 4.42765 -3.26743
RightShoulder  -0.558177 -5.09672 28.2509
RightArm  -19.2552 -13.9934 33.526
RightForeArm  115.357 68.0544 149.284
RightHand  -0.0417306 -4.23574 -1.99405
LeftUpLeg  -10.6817 8.04127 8.22129
LeftLeg  66.0996 0.216382 1.15553
LeftFoot  9.8252 0.295258 -1.69589
LeftToes  -4.9204e-010 1.02043e-011 -1.81609e-011
621
root  -48.135 38.6263 -3.3211 16.6497 -80.881 -30.363
RightUpLeg  -5.43905 -8.97974 4.62603
RightLeg  26.7136 -0.253907 -0.381175
RightFoot  -8.09968 0.0205143 -2.65001
RightToes  5.23868e-010 0 -3.6325e-017
Spine  13.3553 -3.33182 14.251
Spine1  13.8456 -1.21922 0.519723
HEad  -6.43725 -3.68049 -4.0694
LeftShoulder1  0.065877 3.33224 -32.2471
LeftArm  -13.1721 2.14384 -37.7554
LeftForeArm  62.421 -78.8898 -83.936
LeftHand  -0.000458167 4.10147 -3.02039
RightShoulder  -0.582357 -5.15455 28.513
RightArm  -18.8601 -12.0832 33.5539
RightForeArm  113.217 69.2596 147.138
RightHand  -0.0490829 -4.05265 -2.51193
LeftUpLeg  -14.2273 8.85014 7.47234
LeftLeg  68.5737 -0.664316 -1.07427
LeftFoot  5.98031 0.138066 -1.15211
LeftToes  -4.9204e-010 1.02043e-011 -1.81609e-011
622
root  -49.034 38.8603 -3.28564 13.0298 -81.6861 -26.3256
RightUpLeg  -3.70741 -7.76366 3.8625
RightLeg  25.6365 -0.566047 -0.520123
RightFoot  -9.02604 -0.0123215 -2.41497
RightToes  5.23868e-010 0 -3.6325e-017
Spine  12.5211 -3.04518 13.5846
Spine1  14.0886 -1.07298 0.316346
HEad  -5.9773 -3.37973 -4.05001
LeftShoulder1  0.0897005 3.27198 -32.6331
LeftArm  -13.4395 1.81916 -37.7675
LeftForeArm  59.9284 -78.8224 -81.7357
LeftHand  0.00025242 4.06888 -2.81401
RightShoulder  -0.545833 -5.06574 28.1371
RightArm  -18.8573 -11.2141 34.3685
RightForeArm  112.805 70.0043 145.774
RightHand  -0.0428302 -4.09187 -1.96809
LeftUpLeg  -17.1975 9.11077 6.26432
LeftLeg  67.6659 -1.61439 -3.55171
LeftFoot  4.1633 0.204198 -1.7488
LeftToes  -4.9204e-010 1.02043e-011 -1.81609e-011
623
root  -49.9336 39.1362 -3.20228 9.72235 -82.3985 -22.2747
RightUpLeg  -1.97995 -7.71532 2.92599
RightLeg  23.7932 -0.0738305 -0.169701
RightFoot  -9.43177 -0.0243366 -2.37241
RightToes  5.23868e-010 0 -3.6325e-017
Spine  11.8623 -2.81624 13.2889
Spine1  13.3446 -0.931006 -0.21361
HEad  -5.42255 -3.09488 -5.12248
LeftShoulder1  0.0431772 3.3946 -33.3608
LeftArm  -13.285 1.53793 -37.3092
LeftForeArm  56.5756 -78.7104 -78.3084
LeftHand  0.0065619 3.97451 -3.32951
RightShoulder  -0.488152 -4.92316 27.5434
RightArm  -18.8362 -11.2639 35.1241
RightForeArm  112.65 70.3941 145.024
RightHand  -0.0405631 -4.06952 -1.72831
LeftUpLeg  -19.4106 8.59445 4.84667
LeftLeg  63.7997 -2.29155 -4.49623
LeftFoot  1.50854 0.329911 -2.96233
LeftToes  -4.9204e-010 1.02043e-011 -1.81609e-011
624
root  -50.8166 39.402 -3.11581 6.70123 -83.4216 -18.3302
RightUpLeg  -0.471069 -7.62025 2.02449
RightLeg  21.8421 0.729766 0.251121
RightFoot  -9.54892 -0.0252718 -2.51896
RightToes  5.23868e-010 0 -3.6325e-017
Spine  10.6633 -2.34973 13.2892
Spine1  13.4865 -0.40277 -1.31956
HEad  -5.53292 -2.94065 -5.33738
LeftShoulder1  0.0281513 3.43246 -33.3859
LeftArm  -13.1076 0.888132 -37.4886
LeftForeArm  54.4837 -78.6194 -76.4379
LeftHand  0.00556093 3.89946 -2.89809
RightShoulder  -0.506413 -4.98039 27.4627
RightArm  -18.7049 -11.0248 34.9735
RightForeArm  111.498 70.761 144.164
RightHand  -0.0425727 -4.17795 -2.0252
LeftUpLeg  -20.669 7.93628 3.35665
LeftLeg  57.0455 -2.10628 -3.0061
LeftFoot  0.786205 0.072761 -0.736427
LeftToes  -4.9204e-010 1.02043e-011 -1.81609e-011
